<svg width="47" height="21" viewBox="0 0 47 21" fill="none" xmlns="http://www.w3.org/2000/svg">
<g opacity="0.35">
<g clip-path="url(#clip0_103_90)">
<path d="M20.5926 10.9943L25.2568 15.6585C25.4174 15.8191 25.6072 15.8994 25.8261 15.8994C26.0451 15.8994 26.2385 15.8155 26.4064 15.6476C26.5743 15.4797 26.6583 15.2899 26.6583 15.0782C26.6583 14.8666 26.578 14.6731 26.4174 14.498L22.3444 10.425L26.4174 6.35197C26.578 6.17679 26.6583 5.98336 26.6583 5.77168C26.6583 5.56 26.5743 5.37022 26.4064 5.20233C26.2385 5.03445 26.0451 4.95051 25.8261 4.95051C25.6072 4.95051 25.4174 5.0308 25.2568 5.19139L20.5926 9.83372C20.432 10.0089 20.3517 10.206 20.3517 10.425C20.3517 10.6439 20.432 10.8337 20.5926 10.9943Z" fill="#808080"/>
</g>
</g>
<defs>
<clipPath id="clip0_103_90">
<rect width="10.95" height="12" fill="white" transform="matrix(1 0 0 -1 18.03 15.8994)"/>
</clipPath>
</defs>
</svg>
