<svg width="20" height="22" viewBox="0 0 20 22" fill="none" xmlns="http://www.w3.org/2000/svg">
<g clip-path="url(#clip0_103_77)">
<path d="M15.684 18.0645C16.2154 18.0898 16.6583 18.2796 17.0126 18.6339C17.3669 18.9882 17.544 19.431 17.544 19.9625C17.544 20.4939 17.3669 20.9368 17.0126 21.2911C16.6583 21.6454 16.2154 21.8225 15.684 21.8225C15.1526 21.8225 14.7097 21.6454 14.3554 21.2911C14.0011 20.9368 13.824 20.4939 13.824 19.9625C13.824 19.431 14.0011 18.9882 14.3554 18.6339C14.7097 18.2796 15.1526 18.0898 15.684 18.0645ZM0.5 2.88047H3.61272L4.4858 4.77847H18.531C18.8094 4.77847 19.0371 4.86704 19.2143 5.04419C19.3914 5.22134 19.48 5.4491 19.48 5.72747C19.48 5.87931 19.442 6.03115 19.3661 6.18299L15.9877 12.3325C15.8105 12.6362 15.5764 12.8766 15.2854 13.0538C14.9944 13.2309 14.6717 13.3195 14.3174 13.3195H7.25688L6.3838 14.8758L6.34584 14.9897C6.37115 15.1415 6.44707 15.2175 6.5736 15.2175H17.582V17.1155H6.194C5.66256 17.0902 5.21969 16.9004 4.8654 16.5461C4.51111 16.1918 4.32131 15.7489 4.296 15.2175C4.296 14.8885 4.37192 14.5848 4.52376 14.3064L5.8144 11.9909L2.398 4.77847H0.5V2.88047ZM6.194 18.0645C6.72544 18.0898 7.16831 18.2796 7.5226 18.6339C7.87689 18.9882 8.05404 19.431 8.05404 19.9625C8.05404 20.4939 7.87689 20.9368 7.5226 21.2911C7.16831 21.6454 6.72544 21.8225 6.194 21.8225C5.66256 21.8225 5.21969 21.6454 4.8654 21.2911C4.51111 20.9368 4.33396 20.4939 4.33396 19.9625C4.33396 19.431 4.51111 18.9882 4.8654 18.6339C5.21969 18.2796 5.66256 18.0898 6.194 18.0645ZM14.735 11.4215L17.3922 6.67647H5.39684L7.63648 11.4215H14.735Z" fill="#231F20"/>
</g>
<defs>
<clipPath id="clip0_103_77">
<rect width="18.98" height="21" fill="white" transform="matrix(1 0 0 -1 0.5 21.9595)"/>
</clipPath>
</defs>
</svg>
