<svg width="32" height="36" viewBox="0 0 32 36" fill="none" xmlns="http://www.w3.org/2000/svg">
<g clip-path="url(#clip0_103_228)">
<path d="M31.9372 14.1439C31.8946 12.2704 31.2559 10.7056 30.0211 9.44953C28.7863 8.19344 27.2322 7.54411 25.3587 7.50153C24.1239 7.50153 22.9743 7.82088 21.9098 8.45956C21.1859 7.01187 20.1215 5.95804 18.7164 5.29807C17.3112 4.63809 15.821 4.521 14.2455 4.94679C13.3088 5.20226 12.4785 5.6387 11.7547 6.2561C11.0308 6.87349 10.456 7.60798 10.0302 8.45956C8.62511 7.65056 7.15613 7.35251 5.62329 7.5654C4.09044 7.7783 2.77049 8.50214 1.66343 9.73693C0.471218 11.142 -0.0716657 12.7281 0.034782 14.4951C0.14123 16.2622 0.875719 17.7844 2.23825 19.0618C3.30273 19.9559 4.51623 20.4882 5.87876 20.6585V34.2625C5.92134 34.7734 6.21939 35.0502 6.77292 35.0928H25.1671C25.678 35.0502 25.9548 34.7734 25.9974 34.2625V20.6585C27.7005 20.4882 29.1056 19.7962 30.2127 18.5827C31.3198 17.3692 31.8946 15.8896 31.9372 14.1439ZM7.53934 33.3683V30.3026H24.2729V33.3683H7.53934ZM25.2948 18.9979C25.2522 18.9979 25.2309 18.9979 25.2309 18.9979C24.5497 18.9979 23.8897 18.8595 23.251 18.5827C22.6123 18.306 22.0588 17.8908 21.5904 17.3373C21.4201 17.167 21.2285 17.0712 21.0156 17.0499C20.8027 17.0286 20.6005 17.1031 20.4089 17.2734C20.2173 17.4437 20.1108 17.646 20.0895 17.8802C20.0682 18.1144 20.1427 18.3166 20.3131 18.4869C21.3775 19.6791 22.6975 20.403 24.2729 20.6585V28.5782H19.866V24.4267C19.8234 23.9158 19.536 23.6603 19.0038 23.6603C18.4715 23.6603 18.1841 23.9158 18.1415 24.4267V28.5782H13.7346V24.4267C13.692 23.9158 13.4046 23.6603 12.8724 23.6603C12.3401 23.6603 12.0527 23.9158 12.0101 24.4267V28.5782H7.53934V20.6585C9.07219 20.403 10.3496 19.743 11.3715 18.6785C11.5418 18.5082 11.6269 18.306 11.6269 18.0718C11.6269 17.8376 11.5311 17.6354 11.3395 17.465C11.1479 17.2947 10.9457 17.2202 10.7328 17.2415C10.5199 17.2628 10.3283 17.3586 10.158 17.5289C9.17864 18.5082 8.00771 19.0192 6.64518 19.0618H6.58131C5.34652 19.0192 4.28204 18.5934 3.38788 17.7844C2.36599 16.8476 1.81246 15.7299 1.7273 14.4313C1.64214 13.1326 2.04664 11.9617 2.9408 10.9185C3.83496 9.87532 4.95267 9.31114 6.29391 9.22599C7.63515 9.14083 8.81672 9.54533 9.83861 10.4395C10.0941 10.6524 10.3709 10.7056 10.6689 10.5992C10.967 10.4927 11.1586 10.2905 11.2437 9.99241C11.4566 9.14083 11.8718 8.41698 12.4892 7.82088C13.1066 7.22477 13.841 6.79898 14.6926 6.5435C15.97 6.20287 17.1941 6.37319 18.3651 7.05445C19.536 7.73572 20.2918 8.71504 20.6324 9.99241C20.7176 10.2905 20.9092 10.4927 21.2072 10.5992C21.5053 10.7056 21.782 10.6524 22.0375 10.4395C22.9743 9.63049 24.06 9.2047 25.2948 9.16212C26.6999 9.2047 27.8602 9.69436 28.7757 10.6311C29.6911 11.5678 30.1488 12.7281 30.1488 14.1119C30.1488 15.4958 29.6805 16.6454 28.7437 17.5608C27.807 18.4763 26.6573 18.9553 25.2948 18.9979Z" fill="#1EB5DA"/>
</g>
<defs>
<clipPath id="clip0_103_228">
<rect width="31.94" height="35" fill="white" transform="matrix(1 0 0 -1 0 35.8594)"/>
</clipPath>
</defs>
</svg>
