<svg width="33" height="36" viewBox="0 0 33 36" fill="none" xmlns="http://www.w3.org/2000/svg">
<g clip-path="url(#clip0_103_236)">
<path d="M30.8404 17.0822C30.4998 16.8693 30.2869 16.5713 30.2017 16.188C30.1166 15.8048 30.1592 15.4429 30.3295 15.1023C30.4998 14.8468 30.6275 14.57 30.7127 14.272C30.7978 13.9739 30.8191 13.6759 30.7766 13.3778C30.6914 12.6966 30.3933 12.1217 29.8824 11.6534C29.6269 11.4405 29.3502 11.2914 29.0521 11.2063C28.754 11.1211 28.456 11.0998 28.1579 11.1424C27.7322 11.0573 27.4022 10.8657 27.168 10.5676C26.9338 10.2696 26.8167 9.92892 26.8167 9.54571C26.9019 8.9496 26.7741 8.34285 26.4335 7.72545C26.0929 7.10806 25.5819 6.73549 24.9006 6.60775C24.262 6.43743 23.6446 6.5013 23.0485 6.79936C22.6652 6.92709 22.2927 6.92709 21.9308 6.79936C21.5688 6.67162 21.3027 6.41615 21.1324 6.03293C21.0898 5.73488 20.9727 5.45811 20.7811 5.20264C20.5895 4.94717 20.366 4.73427 20.1105 4.56396C19.5144 4.18074 18.9076 4.05301 18.2902 4.18074C17.6728 4.30848 17.1512 4.62782 16.7255 5.13877C16.5977 5.22393 16.438 5.31973 16.2464 5.42618C16.0548 5.53263 15.8739 5.58585 15.7036 5.58585C15.3203 5.58585 14.9797 5.45811 14.6817 5.20264C14.2559 4.73427 13.7236 4.43622 13.0849 4.30848C12.3611 4.2659 11.765 4.42557 11.2966 4.78749C10.8283 5.14942 10.5302 5.67101 10.4025 6.35228C10.2747 6.73549 10.0405 7.01225 9.69991 7.18257C9.35928 7.35288 8.97607 7.41675 8.55028 7.37417C7.95417 7.1187 7.34742 7.09741 6.73002 7.3103C6.11262 7.5232 5.63361 7.9277 5.29298 8.52381C5.08008 9.11992 5.0375 9.71602 5.16524 10.3121C5.20782 10.7379 5.11202 11.0998 4.87783 11.3979C4.64365 11.6959 4.33495 11.9088 3.95174 12.0366C3.27047 12.0366 2.69565 12.2495 2.22728 12.6753C2.01439 12.9307 1.83343 13.2075 1.6844 13.5056C1.53537 13.8036 1.46086 14.1017 1.46086 14.3997C1.46086 15.081 1.67376 15.6558 2.09955 16.1242C2.31244 16.4222 2.3976 16.7841 2.35502 17.2099C2.22728 17.5932 2.03568 17.8912 1.7802 18.1041C1.22668 18.4022 0.843464 18.8705 0.630569 19.5092C0.417673 20.1479 0.438963 20.7546 0.694437 21.3295C0.949912 21.9043 1.39699 22.3407 2.03568 22.6388C2.37631 22.8942 2.58921 23.2136 2.67436 23.5968C2.75952 23.98 2.73823 24.3419 2.6105 24.6826C2.3976 24.938 2.24857 25.2148 2.16342 25.5129C2.07826 25.8109 2.05697 26.109 2.09955 26.407C2.1847 27.0883 2.48276 27.6418 2.99371 28.0676C3.50466 28.4934 4.07947 28.685 4.71816 28.6424C5.14395 28.685 5.47394 28.8766 5.70812 29.2172C5.94231 29.5579 6.0594 29.8985 6.0594 30.2391C5.97424 30.8352 6.10198 31.4314 6.44261 32.0275C6.78325 32.6236 7.26226 33.0068 7.87966 33.1771C8.49705 33.3474 9.1038 33.2835 9.69991 32.9855C10.0831 32.8577 10.4663 32.8577 10.8495 32.9855C11.2328 33.1132 11.4882 33.3687 11.616 33.7519C11.7011 34.05 11.8395 34.3267 12.0311 34.5822C12.2227 34.8377 12.425 35.0506 12.6379 35.2209C13.1062 35.5189 13.5533 35.668 13.9791 35.668C14.8307 35.668 15.512 35.3273 16.0229 34.6461C16.321 34.348 16.6616 34.199 17.0448 34.199C17.428 34.199 17.7686 34.3054 18.0667 34.5183C18.4499 34.9867 18.9822 35.2848 19.6634 35.4125C20.3447 35.5402 20.9514 35.4125 21.4837 35.0293C22.0159 34.6461 22.3459 34.1138 22.4736 33.4326C22.6014 33.0494 22.8356 32.7619 23.1762 32.5703C23.5168 32.3787 23.9 32.3468 24.3258 32.4745C24.9219 32.7726 25.5393 32.8045 26.178 32.5703C26.8167 32.3362 27.2851 31.9317 27.5831 31.3568C27.8812 30.782 27.9663 30.1753 27.8386 29.5366C27.796 29.1534 27.8918 28.8127 28.126 28.5147C28.3602 28.2166 28.6689 28.0037 29.0521 27.876C29.7334 27.876 30.3082 27.6418 30.7766 27.1734C30.9894 26.9605 31.1704 26.6944 31.3194 26.3751C31.4685 26.0557 31.543 25.7683 31.543 25.5129C31.543 24.8316 31.3088 24.2568 30.8404 23.7884C30.6275 23.4478 30.5637 23.0859 30.6488 22.7026C30.734 22.3194 30.9256 22.0001 31.2236 21.7446C31.7772 21.4466 32.1391 20.9675 32.3094 20.3076C32.4797 19.6476 32.4371 19.0089 32.1817 18.3915C31.9262 17.7741 31.4791 17.3377 30.8404 17.0822ZM30.3295 19.5092C30.2869 19.6369 30.2017 19.7008 30.074 19.7008C30.0314 19.7008 29.9888 19.7434 29.9463 19.8286C29.1798 20.4247 28.7008 21.1804 28.5092 22.0959C28.3176 23.0113 28.456 23.8736 28.9244 24.6826L29.0521 24.938C29.2224 25.1509 29.2224 25.3638 29.0521 25.5767C28.9244 25.7045 28.8179 25.747 28.7328 25.7045H28.4773C27.498 25.9174 26.7315 26.407 26.178 27.1734C25.6245 27.9399 25.4116 28.8127 25.5393 29.7921V29.9198C25.6671 30.1327 25.5606 30.3243 25.22 30.4946H24.9006C24.8581 30.4946 24.8155 30.452 24.7729 30.3669C24.3045 30.2391 23.8362 30.1859 23.3678 30.2072C22.8994 30.2285 22.4523 30.3456 22.0266 30.5585C21.2176 30.9843 20.6214 31.7081 20.2382 32.73V32.8577C20.1957 33.1132 20.004 33.2197 19.6634 33.1771L19.3441 33.0494L19.2163 32.9855C18.4499 32.3042 17.609 31.9742 16.6935 31.9955C15.7781 32.0168 14.9584 32.3681 14.2346 33.0494L14.1068 33.1771C13.9365 33.39 13.7236 33.4326 13.4682 33.3048L13.2127 33.0494V32.9855C12.8721 32.0487 12.2334 31.3888 11.2966 31.0056C10.7857 30.7927 10.3067 30.6969 9.85958 30.7182C9.4125 30.7394 9.01865 30.814 8.67801 30.9417H8.55028C8.55028 30.8991 8.52899 30.9204 8.48641 31.0056C8.23093 31.1333 8.03933 31.112 7.91159 30.9417C7.78385 30.814 7.78385 30.6862 7.91159 30.5585V30.4946C7.95417 30.0262 7.90095 29.5579 7.75192 29.0895C7.60289 28.6211 7.37935 28.2166 7.0813 27.876C6.48519 27.1522 5.69748 26.7264 4.71816 26.5986H4.52655C4.2285 26.6412 4.07947 26.4922 4.07947 26.1515C4.03689 26.0664 4.05818 25.9599 4.14334 25.8322L4.27108 25.7045C4.78203 24.8103 4.90977 23.9161 4.65429 23.022C4.39882 22.1278 3.824 21.404 2.92984 20.8505H2.8021C2.54663 20.7227 2.48276 20.5311 2.6105 20.2756C2.6105 20.1479 2.67436 20.084 2.8021 20.084C2.84468 20.084 2.88726 20.0414 2.92984 19.9563C3.73884 19.3602 4.23915 18.5938 4.43075 17.657C4.62236 16.7203 4.42011 15.8261 3.824 14.9745L3.69626 14.8468C3.52595 14.6339 3.52595 14.3997 3.69626 14.1442C3.824 14.0591 3.95174 14.0378 4.07947 14.0804H4.27108C5.2504 13.8675 6.02747 13.3778 6.60228 12.6114C7.1771 11.845 7.37935 10.9721 7.20904 9.99279V9.86505C7.12388 9.60958 7.23033 9.41797 7.52838 9.29023H7.91159C7.95417 9.29023 7.99675 9.33281 8.03933 9.41797C9.01865 9.67344 9.91281 9.58829 10.7218 9.16249C11.5308 8.7367 12.1056 8.03415 12.4463 7.05483V6.79936C12.4463 6.7142 12.5101 6.60775 12.6379 6.48001L13.0211 6.35228C13.1062 6.39486 13.2127 6.48001 13.3404 6.60775L13.4682 6.67162C14.1494 7.39546 15.001 7.71481 16.0229 7.62965C16.4913 7.58707 16.9384 7.48062 17.3641 7.3103C17.7899 7.13999 18.1519 6.9058 18.4499 6.60775L18.6415 6.35228C18.8118 6.13938 19.046 6.0968 19.3441 6.22454L19.5357 6.48001V6.60775C19.9189 7.50191 20.5576 8.1406 21.4517 8.52381C22.3459 8.90702 23.3039 8.90702 24.3258 8.52381C24.3684 8.52381 24.4216 8.47058 24.4855 8.36414C24.5494 8.25769 24.6452 8.26833 24.7729 8.39607C24.9006 8.43865 24.9645 8.52381 24.9645 8.65155C25.0922 8.7367 25.0922 8.84315 24.9645 8.97089V9.09863C24.9645 10.0779 25.2732 10.9402 25.8906 11.6853C26.508 12.4304 27.3064 12.8456 28.2857 12.9307H28.4773L28.8605 13.0585C28.8605 13.0585 28.8818 13.1649 28.9244 13.3778C28.9669 13.5056 28.9457 13.612 28.8605 13.6972L28.7328 13.8249C28.2218 14.7191 28.0834 15.6239 28.3176 16.5393C28.5518 17.4548 29.0947 18.168 29.9463 18.6789L30.2017 18.8067C30.3295 19.0196 30.3721 19.2537 30.3295 19.5092ZM15.2565 18.0402C15.2139 16.55 14.4901 15.7835 13.0849 15.741C12.4037 15.741 11.8821 15.9432 11.5202 16.3477C11.1582 16.7522 10.9773 17.3164 10.9773 18.0402C11.0199 19.5305 11.7224 20.2756 13.0849 20.2756C13.7662 20.2756 14.2985 20.0734 14.6817 19.6689C15.0649 19.2644 15.2565 18.7215 15.2565 18.0402ZM13.0849 19.0621C12.8295 19.0196 12.6592 18.9025 12.574 18.7109C12.4888 18.5192 12.4463 18.2957 12.4463 18.0402C12.3611 17.359 12.574 17.0183 13.0849 17.0183C13.4256 17.0183 13.6278 17.1141 13.6917 17.3057C13.7556 17.4973 13.7875 17.7315 13.7875 18.0083C13.7875 18.2851 13.7449 18.5192 13.6598 18.7109C13.5746 18.9025 13.383 19.0196 13.0849 19.0621ZM19.6634 20.8505C18.9822 20.8505 18.4606 21.0527 18.0986 21.4572C17.7367 21.8617 17.5345 22.4046 17.4919 23.0859C17.5345 24.5761 18.2583 25.3425 19.6634 25.3851C20.3447 25.3851 20.8769 25.1829 21.2601 24.7784C21.6433 24.3739 21.8349 23.8203 21.8349 23.1178C21.8349 22.4152 21.6433 21.8617 21.2601 21.4572C20.8769 21.0527 20.3447 20.8505 19.6634 20.8505ZM19.6634 24.2355C19.4079 24.2355 19.227 24.1397 19.1205 23.9481C19.0141 23.7565 18.9609 23.5116 18.9609 23.2136C18.9183 22.5323 19.1525 22.1917 19.6634 22.1917C20.004 22.1917 20.2063 22.2875 20.2702 22.4791C20.334 22.6707 20.366 22.9155 20.366 23.2136C20.366 23.5116 20.3234 23.7565 20.2382 23.9481C20.1531 24.1397 19.9615 24.2355 19.6634 24.2355ZM17.0448 15.5494L13.9152 25.3851H15.5758L18.7693 15.5494H17.0448Z" fill="#1EB5DA"/>
</g>
<defs>
<clipPath id="clip0_103_236">
<rect width="31.94" height="35" fill="white" transform="matrix(1 0 0 -1 0.5 35.8594)"/>
</clipPath>
</defs>
</svg>
