<svg width="39" height="64" viewBox="0 0 39 64" fill="none" xmlns="http://www.w3.org/2000/svg">
<g opacity="0.4">
<g clip-path="url(#clip0_103_179)">
<path d="M20.8226 21.0822H1.37734C1.02697 21.0822 0.735004 21.199 0.501427 21.4325C0.26785 21.6661 0.151062 21.9581 0.151062 22.3084V41.7537C0.151062 42.1041 0.26785 42.396 0.501427 42.6296C0.735004 42.8632 1.02697 42.98 1.37734 42.98H11.8445V34.4836H8.99778V31.199H11.8445V28.7464C11.8737 27.3449 12.2678 26.272 13.027 25.5274C13.7861 24.7829 14.808 24.4106 16.0927 24.4106C16.7058 24.4106 17.246 24.4252 17.7131 24.4544C18.1803 24.4836 18.4868 24.4982 18.6328 24.4982V27.4763H16.881C16.2095 27.4763 15.7642 27.6223 15.5452 27.9143C15.3262 28.2063 15.2314 28.6004 15.2606 29.0968V31.199H18.5452L18.1073 34.4836H15.2606V42.98H20.8226C21.173 42.98 21.4649 42.8632 21.6985 42.6296C21.9321 42.396 22.0489 42.1041 22.0489 41.7537V22.3084C22.0489 21.9581 21.9321 21.6661 21.6985 21.4325C21.4649 21.199 21.173 21.0822 20.8226 21.0822Z" fill="#808080"/>
</g>
</g>
<defs>
<clipPath id="clip0_103_179">
<rect width="21.9" height="24" fill="white" transform="matrix(1 0 0 -1 0.149963 42.98)"/>
</clipPath>
</defs>
</svg>
