<svg width="23" height="24" viewBox="0 0 23 24" fill="none" xmlns="http://www.w3.org/2000/svg">
<g clip-path="url(#clip0_103_27)">
<path d="M22.5276 13.4891C22.5568 13.4599 22.5714 13.4307 22.5714 13.4015C22.6297 13.2847 22.6589 13.1679 22.6589 13.0512C22.6589 12.9344 22.6297 12.8176 22.5714 12.7008L22.5276 12.6132C22.4984 12.5256 22.4546 12.4526 22.3963 12.3942L16.399 6.91977C16.2239 6.74458 16.0123 6.66429 15.7643 6.67889C15.5162 6.69349 15.3046 6.79568 15.1295 6.98546C14.9544 7.17524 14.8742 7.38692 14.8888 7.6205C14.9033 7.85407 14.9982 8.05845 15.1733 8.23363L19.4195 12.1314H1.69041C1.42775 12.1314 1.20887 12.219 1.03377 12.3942C0.858669 12.5694 0.771118 12.7884 0.771118 13.0512C0.771118 13.3139 0.858669 13.5329 1.03377 13.7081C1.20887 13.8833 1.42775 13.9709 1.69041 13.9709H19.4195L15.1733 17.8687C14.9982 18.0439 14.9033 18.2482 14.8888 18.4818C14.8742 18.7154 14.9544 18.9344 15.1295 19.1387C15.3046 19.3431 15.5162 19.4453 15.7643 19.4453C16.0123 19.4453 16.2239 19.3577 16.399 19.1825L22.3963 13.7081C22.4546 13.6497 22.4984 13.5767 22.5276 13.4891Z" fill="white"/>
</g>
<defs>
<clipPath id="clip0_103_27">
<rect width="21.89" height="24" fill="white" transform="matrix(1 0 0 -1 0.77002 24)"/>
</clipPath>
</defs>
</svg>
