<svg width="64" height="71" viewBox="0 0 64 71" fill="none" xmlns="http://www.w3.org/2000/svg">
<g clip-path="url(#clip0_103_125)">
<path d="M60.6713 32.6751C59.9902 32.2494 59.5645 31.6532 59.3942 30.8868C59.2239 30.1204 59.309 29.3966 59.6496 28.7153C59.9902 28.2043 60.2456 27.6508 60.4159 27.0547C60.5862 26.4586 60.6288 25.8625 60.5436 25.2664C60.3733 23.9039 59.7773 22.7542 58.7556 21.8175C58.2447 21.3917 57.6913 21.0936 57.0953 20.9233C56.4992 20.753 55.9032 20.7104 55.3072 20.7956C54.4558 20.6253 53.7959 20.2421 53.3276 19.646C52.8593 19.0498 52.6252 18.3686 52.6252 17.6022C52.7954 16.4099 52.54 15.1964 51.8589 13.9616C51.1777 12.7269 50.156 11.9817 48.7936 11.7262C47.5165 11.3856 46.2819 11.5133 45.0898 12.1095C44.3235 12.3649 43.5785 12.3649 42.8548 12.1095C42.1311 11.854 41.5989 11.343 41.2583 10.5766C41.1732 9.9805 40.939 9.42697 40.5559 8.91602C40.1727 8.40508 39.7257 7.97928 39.2148 7.63865C38.0228 6.87223 36.8095 6.61675 35.5749 6.87223C34.3403 7.1277 33.2973 7.76639 32.4458 8.78829C32.1904 8.9586 31.8711 9.15021 31.488 9.36311C31.1048 9.576 30.7429 9.68245 30.4024 9.68245C29.6361 9.68245 28.9549 9.42697 28.3589 8.91602C27.5074 7.97928 26.4431 7.38318 25.166 7.1277C23.7185 7.04255 22.5265 7.36189 21.5899 8.08573C20.6533 8.80958 20.0573 9.85276 19.8018 11.2153C19.5464 11.9817 19.0781 12.5352 18.3969 12.8759C17.7158 13.2165 16.9495 13.3442 16.098 13.2591C14.906 12.7481 13.6927 12.7056 12.4581 13.1314C11.2235 13.5571 10.2656 14.3661 9.58445 15.5584C9.15872 16.7506 9.07358 17.9428 9.32901 19.135C9.41416 19.9866 9.22258 20.7104 8.75429 21.3065C8.28599 21.9026 7.66869 22.3284 6.90239 22.5839C5.54007 22.5839 4.39062 23.0097 3.45402 23.8613C3.0283 24.3722 2.66643 24.9258 2.36843 25.5219C2.07042 26.118 1.92142 26.7141 1.92142 27.3102C1.92142 28.6727 2.34714 29.8223 3.19859 30.7591C3.62431 31.3552 3.7946 32.079 3.70946 32.9306C3.45402 33.697 3.07087 34.2932 2.56 34.7189C1.45312 35.315 0.686816 36.2518 0.261092 37.5292C-0.164632 38.8065 -0.12206 40.02 0.388809 41.1697C0.899678 42.3193 1.7937 43.1922 3.07087 43.7883C3.75203 44.2992 4.17775 44.9379 4.34804 45.7043C4.51833 46.4708 4.47576 47.1946 4.22033 47.8759C3.7946 48.3868 3.49659 48.9404 3.32631 49.5365C3.15602 50.1326 3.11344 50.7287 3.19859 51.3248C3.36888 52.6873 3.96489 53.7944 4.98663 54.646C6.00837 55.4975 7.15782 55.8807 8.43499 55.7956C9.28644 55.8807 9.94631 56.264 10.4146 56.9452C10.8829 57.6265 11.1171 58.3078 11.1171 58.989C10.9468 60.1812 11.2022 61.3734 11.8834 62.5657C12.5645 63.7579 13.5224 64.5243 14.757 64.8649C15.9916 65.2056 17.2049 65.0778 18.3969 64.4817C19.1632 64.2262 19.9295 64.2262 20.6958 64.4817C21.4622 64.7372 21.973 65.2481 22.2285 66.0146C22.3987 66.6107 22.6755 67.1642 23.0586 67.6751C23.4418 68.1861 23.8462 68.6119 24.2719 68.9525C25.2085 69.5486 26.1025 69.8467 26.954 69.8467C28.6569 69.8467 30.0192 69.1654 31.0409 67.8029C31.637 67.2068 32.3181 66.9087 33.0844 66.9087C33.8507 66.9087 34.5319 67.1216 35.1279 67.5474C35.8942 68.4841 36.9585 69.0803 38.3208 69.3357C39.6831 69.5912 40.8965 69.3357 41.9608 68.5693C43.0251 67.8029 43.6849 66.7384 43.9404 65.3759C44.1958 64.6095 44.6641 64.0346 45.3453 63.6514C46.0264 63.2682 46.7927 63.2043 47.6442 63.4598C48.8362 64.0559 50.0708 64.1198 51.348 63.6514C52.6252 63.1831 53.5617 62.3741 54.1578 61.2244C54.7538 60.0748 54.9241 58.8613 54.6686 57.5839C54.5835 56.8175 54.7751 56.1362 55.2434 55.5401C55.7117 54.944 56.329 54.5182 57.0953 54.2627C58.4576 54.2627 59.607 53.7944 60.5436 52.8576C60.9693 52.4318 61.3312 51.8996 61.6292 51.2609C61.9272 50.6222 62.0762 50.0474 62.0762 49.5365C62.0762 48.1739 61.6079 47.0243 60.6713 46.0876C60.2456 45.4063 60.1179 44.6824 60.2882 43.916C60.4585 43.1496 60.8416 42.5109 61.4376 42C62.5445 41.4039 63.2683 40.4458 63.6088 39.1259C63.9494 37.8059 63.8643 36.5286 63.3534 35.2938C62.8425 34.059 61.9485 33.1861 60.6713 32.6751ZM59.6496 37.5292C59.5645 37.7846 59.3942 37.9124 59.1387 37.9124C59.0536 37.9124 58.9684 37.9975 58.8833 38.1678C57.3507 39.3601 56.3928 40.8716 56.0097 42.7025C55.6265 44.5334 55.9032 46.2579 56.8398 47.8759L57.0953 48.3868C57.4358 48.8126 57.4358 49.2384 57.0953 49.6642C56.8398 49.9197 56.627 50.0048 56.4567 49.9197H55.9458C53.9875 50.3455 52.4549 51.3248 51.348 52.8576C50.2411 54.3905 49.8154 56.1362 50.0708 58.0949V58.3503C50.3262 58.7761 50.1134 59.1593 49.4322 59.5H48.7936C48.7085 59.5 48.6233 59.4148 48.5382 59.2445C47.6016 58.989 46.665 58.8826 45.7284 58.9251C44.7918 58.9677 43.8978 59.2019 43.0464 59.6277C41.4286 60.4793 40.2366 61.927 39.4703 63.9708V64.2262C39.3851 64.7372 39.002 64.9501 38.3208 64.8649L37.6822 64.6095L37.4268 64.4817C35.8942 63.1192 34.2126 62.4592 32.382 62.5018C30.5514 62.5444 28.9123 63.2469 27.4649 64.6095L27.2094 64.8649C26.8688 65.2907 26.4431 65.3759 25.9323 65.1204L25.4214 64.6095V64.4817C24.7402 62.6082 23.4631 61.2883 21.5899 60.5219C20.5681 60.0961 19.6103 59.9045 18.7162 59.947C17.8222 59.9896 17.0346 60.1387 16.3535 60.3941H16.098C16.098 60.309 16.0555 60.3515 15.9703 60.5219C15.4594 60.7773 15.0763 60.7348 14.8209 60.3941C14.5654 60.1387 14.5654 59.8832 14.8209 59.6277V59.5C14.906 58.5632 14.7996 57.6265 14.5016 56.6897C14.2036 55.753 13.7565 54.944 13.1605 54.2627C11.9685 52.8151 10.3933 51.9635 8.43499 51.708H8.05184C7.45583 51.7932 7.15782 51.4951 7.15782 50.8138C7.07268 50.6435 7.11525 50.4306 7.28554 50.1751L7.54097 49.9197C8.56271 48.1314 8.81815 46.343 8.30728 44.5547C7.79641 42.7664 6.64695 41.3187 4.85891 40.2116H4.60348C4.09261 39.9562 3.96489 39.573 4.22033 39.062C4.22033 38.8065 4.34804 38.6788 4.60348 38.6788C4.68862 38.6788 4.77377 38.5936 4.85891 38.4233C6.47666 37.2311 7.47712 35.6983 7.86027 33.8248C8.24342 31.9513 7.83898 30.163 6.64695 28.4598L6.39152 28.2043C6.05094 27.7786 6.05094 27.3102 6.39152 26.7992C6.64695 26.6289 6.90239 26.5863 7.15782 26.6715H7.54097C9.4993 26.2457 11.0532 25.2664 12.2027 23.7335C13.3521 22.2007 13.7565 20.455 13.416 18.4963V18.2408C13.2457 17.7299 13.4585 17.3467 14.0546 17.0912H14.8209C14.906 17.0912 14.9911 17.1764 15.0763 17.3467C17.0346 17.8576 18.8227 17.6873 20.4404 16.8357C22.0582 15.9841 23.2076 14.579 23.8888 12.6204V12.1095C23.8888 11.9391 24.0165 11.7262 24.2719 11.4708L25.0382 11.2153C25.2085 11.3005 25.4214 11.4708 25.6768 11.7262L25.9323 11.854C27.2946 13.3017 28.9975 13.9404 31.0409 13.77C31.9775 13.6849 32.8716 13.472 33.723 13.1314C34.5745 12.7907 35.2982 12.3223 35.8942 11.7262L36.2774 11.2153C36.6179 10.7895 37.0862 10.7043 37.6822 10.9598L38.0654 11.4708V11.7262C38.8317 13.5146 40.1089 14.7919 41.8969 15.5584C43.6849 16.3248 45.6007 16.3248 47.6442 15.5584C47.7293 15.5584 47.8358 15.4519 47.9635 15.239C48.0912 15.0261 48.2828 15.0474 48.5382 15.3029C48.7936 15.388 48.9214 15.5584 48.9214 15.8138C49.1768 15.9841 49.1768 16.197 48.9214 16.4525V16.708C48.9214 18.6666 49.5387 20.3911 50.7733 21.8814C52.0079 23.3716 53.6043 24.2019 55.5627 24.3722H55.9458L56.7121 24.6277C56.7121 24.6277 56.7547 24.8406 56.8398 25.2664C56.925 25.5219 56.8824 25.7348 56.7121 25.9051L56.4567 26.1605C55.4349 27.9489 55.1582 29.7585 55.6265 31.5894C56.0948 33.4203 57.1804 34.8467 58.8833 35.8686L59.3942 36.1241C59.6496 36.5498 59.7347 37.0182 59.6496 37.5292ZM29.5083 34.5912C29.4232 31.6107 27.9757 30.0778 25.166 29.9927C23.8036 29.9927 22.7606 30.3972 22.0369 31.2062C21.3131 32.0152 20.9513 33.1435 20.9513 34.5912C21.0364 37.5717 22.4413 39.062 25.166 39.062C26.5283 39.062 27.5926 38.6575 28.3589 37.8485C29.1252 37.0395 29.5083 35.9537 29.5083 34.5912ZM25.166 36.635C24.6551 36.5498 24.3145 36.3157 24.1442 35.9324C23.9739 35.5492 23.8888 35.1022 23.8888 34.5912C23.7185 33.2287 24.1442 32.5474 25.166 32.5474C25.8471 32.5474 26.2515 32.739 26.3793 33.1222C26.507 33.5054 26.5708 33.9738 26.5708 34.5273C26.5708 35.0809 26.4857 35.5492 26.3154 35.9324C26.1451 36.3157 25.762 36.5498 25.166 36.635ZM38.3208 40.2116C36.9585 40.2116 35.9155 40.6161 35.1918 41.4251C34.468 42.2341 34.0636 43.3199 33.9784 44.6824C34.0636 47.663 35.511 49.1958 38.3208 49.281C39.6831 49.281 40.7475 48.8765 41.5138 48.0675C42.2801 47.2585 42.6632 46.1514 42.6632 44.7463C42.6632 43.3412 42.2801 42.2341 41.5138 41.4251C40.7475 40.6161 39.6831 40.2116 38.3208 40.2116ZM38.3208 46.9817C37.81 46.9817 37.4481 46.7901 37.2352 46.4069C37.0224 46.0237 36.9159 45.534 36.9159 44.9379C36.8308 43.5754 37.2991 42.8941 38.3208 42.8941C39.002 42.8941 39.4064 43.0857 39.5341 43.4689C39.6619 43.8522 39.7257 44.3418 39.7257 44.9379C39.7257 45.534 39.6406 46.0237 39.4703 46.4069C39.3 46.7901 38.9168 46.9817 38.3208 46.9817ZM33.0844 29.6095L26.8263 49.281H30.1469L36.5328 29.6095H33.0844Z" fill="white"/>
</g>
<defs>
<clipPath id="clip0_103_125">
<rect width="63.87" height="70" fill="white" transform="matrix(1 0 0 -1 0 70.23)"/>
</clipPath>
</defs>
</svg>
