<svg width="22" height="24" viewBox="0 0 22 24" fill="none" xmlns="http://www.w3.org/2000/svg">
<g clip-path="url(#clip0_103_25)">
<path d="M0.132485 12.6131C0.103288 12.6423 0.0886899 12.6715 0.0886899 12.7007C0.0302957 12.8175 0.00109863 12.9343 0.00109863 13.0511C0.00109863 13.1679 0.0302957 13.2847 0.0886899 13.4015L0.132485 13.4891C0.161683 13.5766 0.205478 13.6496 0.263872 13.708L6.26387 19.1825C6.43905 19.3577 6.65073 19.438 6.89891 19.4234C7.14708 19.4088 7.35876 19.3066 7.53395 19.1168C7.70913 18.927 7.78942 18.7153 7.77482 18.4818C7.76022 18.2482 7.66533 18.0438 7.49015 17.8686L3.24197 13.9708H20.9792C21.242 13.9708 21.461 13.8832 21.6361 13.708C21.8113 13.5329 21.8989 13.3139 21.8989 13.0511C21.8989 12.7883 21.8113 12.5693 21.6361 12.3942C21.461 12.219 21.242 12.1314 20.9792 12.1314H3.24197L7.49015 8.23358C7.66533 8.0584 7.76022 7.85402 7.77482 7.62045C7.78942 7.38687 7.70913 7.16789 7.53395 6.96351C7.35876 6.75913 7.14708 6.65694 6.89891 6.65694C6.65073 6.65694 6.43905 6.74453 6.26387 6.91972L0.263872 12.3942C0.205478 12.4526 0.161683 12.5256 0.132485 12.6131Z" fill="white"/>
</g>
<defs>
<clipPath id="clip0_103_25">
<rect width="21.9" height="24" fill="white" transform="matrix(1 0 0 -1 0 24)"/>
</clipPath>
</defs>
</svg>
