<svg width="64" height="71" viewBox="0 0 64 71" fill="none" xmlns="http://www.w3.org/2000/svg">
<g clip-path="url(#clip0_103_118)">
<path d="M30.4071 39.0621H7.66992V67.4198H30.4071V39.0621ZM56.5933 39.0621H33.7283V67.5475H56.5933V39.0621ZM30.2794 25.1387H3.32685V35.7409H30.2794V25.1387ZM60.8086 25.011H33.7283V35.8687H60.8086V25.011ZM39.4765 10.9599C37.8585 11.0451 36.5172 11.6199 35.4528 12.6844C34.3883 13.7488 33.856 15.0901 33.856 16.7081V22.3285H39.4765C41.0945 22.3285 42.4357 21.775 43.5002 20.6679C44.5647 19.5609 45.0969 18.1984 45.0969 16.5803C45.0969 14.9623 44.5647 13.6211 43.5002 12.5566C42.4357 11.4921 41.0945 10.9599 39.4765 10.9599ZM23.8925 9.5548C22.1042 9.63996 20.614 10.2786 19.4217 11.4709C18.2295 12.6631 17.6334 14.1533 17.6334 15.9417C17.6334 17.73 18.2295 19.2415 19.4217 20.4763C20.614 21.7111 22.1042 22.3285 23.8925 22.3285H30.2794V15.9417C30.2794 14.1533 29.6833 12.6631 28.4911 11.4709C27.2989 10.2786 25.8086 9.63996 24.0203 9.5548H23.8925ZM24.2758 6.36137C25.8938 6.36137 27.4266 6.74458 28.8743 7.511C30.322 8.27743 31.5142 9.3419 32.4509 10.7044C34.3244 8.83096 36.4747 7.87292 38.9017 7.83035C41.3287 7.78777 43.5215 8.61806 45.4801 10.3212C47.0981 11.9392 48.0349 13.8127 48.2904 15.9417C48.5458 18.0706 48.0775 20.0718 46.8852 21.9453H61.8305C62.4266 22.0305 62.9376 22.2647 63.3633 22.6479C63.7891 23.0311 64.002 23.5207 64.002 24.1168V36.8906C64.002 37.4867 63.7891 37.9763 63.3633 38.3595C62.9376 38.7428 62.4266 38.9769 61.8305 39.0621H59.7867V68.0584C59.7015 68.6546 59.4674 69.1655 59.0842 69.5913C58.7009 70.0171 58.2113 70.23 57.6152 70.23H6.52028C5.92418 70.23 5.43452 70.0171 5.05131 69.5913C4.66809 69.1655 4.43391 68.6546 4.34875 68.0584V39.0621H2.30496C1.70885 38.9769 1.1979 38.7428 0.772109 38.3595C0.346318 37.9763 0.133423 37.4867 0.133423 36.8906V24.1168C0.133423 23.5207 0.346318 23.0311 0.772109 22.6479C1.1979 22.2647 1.70885 22.0305 2.30496 21.9453H16.1006C14.5677 19.646 14.0355 17.1977 14.5039 14.6004C14.9722 12.0031 16.3135 9.85285 18.5276 8.14969C20.2307 6.95747 22.1468 6.36137 24.2758 6.36137Z" fill="white"/>
</g>
<defs>
<clipPath id="clip0_103_118">
<rect width="63.88" height="70" fill="white" transform="matrix(1 0 0 -1 0 70.23)"/>
</clipPath>
</defs>
</svg>
