<svg width="64" height="71" viewBox="0 0 64 71" fill="none" xmlns="http://www.w3.org/2000/svg">
<g clip-path="url(#clip0_103_108)">
<path d="M50.8451 68.6972C50.5045 68.6972 50.2916 68.6972 50.2064 68.6972L32.0677 60.9052L13.8013 68.6972C13.2904 68.9527 12.7368 68.825 12.1407 68.314C11.5446 68.0585 11.3743 67.6327 11.6298 67.0366L13.2904 47.3651L0.261166 32.5476C0.0908497 31.9515 0.00569153 31.3979 0.00569153 30.887C0.346324 30.376 0.814694 29.9928 1.4108 29.7374L20.4436 25.2666L30.6626 8.53298C31.0033 7.93687 31.4716 7.63882 32.0677 7.63882C32.6638 7.63882 33.1322 7.93687 33.4728 8.53298L43.6918 25.2666L62.7247 29.7374C62.9801 29.7374 63.2143 29.8438 63.4272 30.0567C63.6401 30.2696 63.7466 30.5464 63.7466 30.887C64.002 31.3979 63.9169 31.9515 63.4911 32.5476L50.8451 47.3651L52.5057 67.0366C52.4205 67.6327 52.2076 68.0585 51.867 68.314C51.3561 68.5695 51.0154 68.6972 50.8451 68.6972ZM4.73197 32.1644L16.3561 45.449C16.5264 46.0451 16.6115 46.5135 16.6115 46.8541L15.2064 64.4819L31.5568 57.5841C31.8123 57.3286 32.2381 57.3286 32.8342 57.5841L49.1845 64.4819L47.7794 46.8541C47.6943 46.3432 47.7794 45.96 48.0349 45.7045L59.659 32.5476L42.5422 28.3323C42.0312 28.3323 41.648 28.0768 41.3926 27.5658L32.3232 12.3651L22.9984 27.5658C22.7429 27.8213 22.3597 28.0768 21.8488 28.3323L4.73197 32.1644Z" fill="white"/>
</g>
<defs>
<clipPath id="clip0_103_108">
<rect width="63.88" height="70" fill="white" transform="matrix(1 0 0 -1 0 70.23)"/>
</clipPath>
</defs>
</svg>
