<svg width="20" height="22" viewBox="0 0 20 22" fill="none" xmlns="http://www.w3.org/2000/svg">
<g clip-path="url(#clip0_103_53)">
<path d="M15.704 18.0645C16.2354 18.0898 16.6783 18.2796 17.0326 18.6339C17.3869 18.9882 17.564 19.431 17.564 19.9625C17.564 20.4939 17.3869 20.9368 17.0326 21.2911C16.6783 21.6454 16.2354 21.8225 15.704 21.8225C15.1726 21.8225 14.7297 21.6454 14.3754 21.2911C14.0211 20.9368 13.844 20.4939 13.844 19.9625C13.844 19.431 14.0211 18.9882 14.3754 18.6339C14.7297 18.2796 15.1726 18.0898 15.704 18.0645ZM0.520004 2.88047H3.63272L4.5058 4.77847H18.551C18.8294 4.77847 19.0571 4.86704 19.2343 5.04419C19.4114 5.22134 19.5 5.4491 19.5 5.72747C19.5 5.87931 19.462 6.03115 19.3861 6.18299L16.0077 12.3325C15.8305 12.6362 15.5965 12.8766 15.3054 13.0538C15.0144 13.2309 14.6917 13.3195 14.3374 13.3195H7.27688L6.4038 14.8758L6.36584 14.9897C6.39115 15.1415 6.46707 15.2175 6.5936 15.2175H17.602V17.1155H6.214C5.68256 17.0902 5.2397 16.9004 4.8854 16.5461C4.53111 16.1918 4.34131 15.7489 4.316 15.2175C4.316 14.8885 4.39192 14.5848 4.54376 14.3064L5.8344 11.9909L2.418 4.77847H0.520004V2.88047ZM6.214 18.0645C6.74544 18.0898 7.18831 18.2796 7.5426 18.6339C7.8969 18.9882 8.07404 19.431 8.07404 19.9625C8.07404 20.4939 7.8969 20.9368 7.5426 21.2911C7.18831 21.6454 6.74544 21.8225 6.214 21.8225C5.68256 21.8225 5.2397 21.6454 4.8854 21.2911C4.53111 20.9368 4.35396 20.4939 4.35396 19.9625C4.35396 19.431 4.53111 18.9882 4.8854 18.6339C5.2397 18.2796 5.68256 18.0898 6.214 18.0645ZM14.755 11.4215L17.4122 6.67647H5.41684L7.65648 11.4215H14.755Z" fill="#231F20"/>
</g>
<defs>
<clipPath id="clip0_103_53">
<rect width="18.98" height="21" fill="white" transform="matrix(1 0 0 -1 0.520004 21.9595)"/>
</clipPath>
</defs>
</svg>
