<svg width="33" height="36" viewBox="0 0 33 36" fill="none" xmlns="http://www.w3.org/2000/svg">
<g clip-path="url(#clip0_103_232)">
<path d="M28.408 19.1257H32.751V21.3611H28.408V19.1257ZM0.816711 19.1257H5.15978V21.2972H0.816711V19.1896V19.1257ZM17.8696 4.30819V8.65126H15.6981V4.30819H17.8696ZM16.7839 11.5892C19.2535 11.6318 21.3079 12.4727 22.9472 14.112C24.5865 15.7513 25.4274 17.8058 25.47 20.2753C25.3848 21.8508 24.9271 23.2985 24.0968 24.6184C23.2665 25.9384 22.1488 26.9815 20.7437 27.748V30.4305C20.7437 30.8562 20.6053 31.1969 20.3286 31.4524C20.0518 31.7078 19.7005 31.8569 19.2747 31.8994H14.293C13.8672 31.8569 13.5159 31.7078 13.2392 31.4524C12.9624 31.1969 12.824 30.8562 12.824 30.4305V27.8118C11.4189 27.0454 10.3012 26.0022 9.47091 24.6823C8.64062 23.3623 8.18289 21.8933 8.09773 20.2753C8.14031 17.8058 8.98125 15.7513 10.6205 14.112C12.2598 12.4727 14.3143 11.6318 16.7839 11.5892ZM19.658 33.3045V34.3903C19.658 34.6884 19.5196 34.9438 19.2428 35.1567C18.966 35.3696 18.6361 35.4761 18.2528 35.4761H15.3149C14.9317 35.4761 14.6017 35.3696 14.3249 35.1567C14.0482 34.9438 13.9098 34.6884 13.9098 34.3903V33.3045H19.658ZM15.0594 30.4305H18.4444V26.7261C20.3179 26.2151 21.7124 25.1826 22.6278 23.6284C23.5433 22.0743 23.7881 20.3605 23.3623 18.487C22.8088 16.6561 21.755 15.2829 20.2008 14.3675C18.6467 13.452 16.9329 13.2072 15.0594 13.633C13.2285 14.144 11.8553 15.1765 10.9399 16.7306C10.0244 18.2848 9.77961 19.9986 10.2054 21.8721C10.546 23.1069 11.1421 24.15 11.9937 25.0016C12.8453 25.8532 13.8672 26.428 15.0594 26.7261V30.4305ZM24.2565 11.0144L27.3222 7.88483L28.9189 9.48155L25.8532 12.5472L24.2565 11.0144ZM7.65065 12.5472L4.52109 9.48155L6.11781 7.88483L9.1835 11.0144L7.65065 12.5472Z" fill="#1EB5DA"/>
</g>
<defs>
<clipPath id="clip0_103_232">
<rect width="31.94" height="35" fill="white" transform="matrix(1 0 0 -1 0.75 35.8594)"/>
</clipPath>
</defs>
</svg>
