<svg width="33" height="33" viewBox="0 0 33 33" fill="none" xmlns="http://www.w3.org/2000/svg">
<rect x="0.97998" y="0.459473" width="32" height="32" rx="16" fill="white"/>
<g clip-path="url(#clip0_103_352)">
<path d="M24.2507 14.1817C24.2312 13.7923 24.1923 13.4565 24.1339 13.1743C24.0755 12.892 24.0074 12.6341 23.9295 12.4005C23.7543 11.9333 23.472 11.505 23.0827 11.1157C22.6934 10.7263 22.2651 10.4441 21.7979 10.2689C21.5643 10.1715 21.3064 10.0937 21.0241 10.0353C20.7418 9.97686 20.4158 9.94279 20.0459 9.93306C19.676 9.92332 19.3159 9.90872 18.9655 9.88926H15.0527C14.6828 9.90872 14.3178 9.92332 13.9577 9.93306C13.5976 9.94279 13.2764 9.97686 12.9941 10.0353C12.7118 10.0937 12.4539 10.1715 12.2203 10.2689C11.7531 10.4441 11.3248 10.7263 10.9355 11.1157C10.5462 11.505 10.2639 11.9333 10.0887 12.4005C9.99137 12.6341 9.91351 12.892 9.85511 13.1743C9.79671 13.4565 9.76264 13.7777 9.75291 14.1379C9.74317 14.498 9.72857 14.863 9.70911 15.2329V19.1457C9.72857 19.4961 9.74317 19.8562 9.75291 20.2261C9.76264 20.5959 9.79671 20.922 9.85511 21.2043C9.91351 21.4865 9.99137 21.7445 10.0887 21.9781C10.2639 22.4453 10.5462 22.8735 10.9355 23.2629C11.3248 23.6522 11.7531 23.9345 12.2203 24.1097C12.4539 24.1875 12.7118 24.2557 12.9941 24.3141C13.2764 24.3725 13.5976 24.4114 13.9577 24.4309C14.3178 24.4503 14.6828 24.4698 15.0527 24.4893H18.9655C19.3159 24.4698 19.676 24.4503 20.0459 24.4309C20.4158 24.4114 20.7418 24.3725 21.0241 24.3141C21.3064 24.2557 21.5643 24.1875 21.7979 24.1097C22.2651 23.9345 22.6934 23.6522 23.0827 23.2629C23.472 22.8735 23.7543 22.4453 23.9295 21.9781C24.0074 21.7445 24.0755 21.4865 24.1339 21.2043C24.1923 20.922 24.2312 20.5959 24.2507 20.2261C24.2702 19.8562 24.2896 19.4961 24.3091 19.1457V15.2329C24.2896 14.863 24.2702 14.5126 24.2507 14.1817ZM22.9367 20.1385C22.9172 20.4889 22.8832 20.7711 22.8345 20.9853C22.7858 21.1994 22.742 21.3649 22.7031 21.4817C22.5863 21.8126 22.4062 22.0997 22.1629 22.3431C21.9196 22.5864 21.6324 22.7665 21.3015 22.8833C21.1847 22.9222 21.0192 22.966 20.8051 23.0147C20.591 23.0633 20.3136 23.0974 19.9729 23.1169C19.6322 23.1363 19.2867 23.1558 18.9363 23.1753H15.0819C14.7315 23.1558 14.386 23.1363 14.0453 23.1169C13.7046 23.0974 13.4272 23.0633 13.2131 23.0147C12.999 22.966 12.8238 22.9222 12.6875 22.8833C12.376 22.7665 12.0986 22.5864 11.8553 22.3431C11.612 22.0997 11.4319 21.8126 11.3151 21.4817C11.2567 21.3649 11.2032 21.1994 11.1545 20.9853C11.1058 20.7711 11.0766 20.4937 11.0669 20.1531C11.0572 19.8124 11.0426 19.4669 11.0231 19.1165V15.2621C11.0426 14.9117 11.0572 14.5661 11.0669 14.2255C11.0766 13.8848 11.1058 13.6074 11.1545 13.3933C11.2032 13.1791 11.2567 13.0039 11.3151 12.8677C11.4319 12.5562 11.612 12.2788 11.8553 12.0355C12.0986 11.7921 12.376 11.6121 12.6875 11.4953C12.8238 11.4369 12.999 11.3833 13.2131 11.3347C13.4272 11.286 13.7046 11.2568 14.0453 11.2471C14.386 11.2373 14.7315 11.2227 15.0819 11.2033H18.9363C19.2867 11.2227 19.6322 11.2373 19.9729 11.2471C20.3136 11.2568 20.591 11.286 20.8051 11.3347C21.0192 11.3833 21.1847 11.4369 21.3015 11.4953C21.6324 11.6121 21.9196 11.7921 22.1629 12.0355C22.4062 12.2788 22.5863 12.5562 22.7031 12.8677C22.742 13.0039 22.7858 13.1791 22.8345 13.3933C22.8832 13.6074 22.9172 13.8848 22.9367 14.2255C22.9562 14.5661 22.9756 14.9117 22.9951 15.2621V19.1165C22.9756 19.4669 22.9562 19.8075 22.9367 20.1385ZM17.0091 13.4517C15.9384 13.4711 15.0527 13.8313 14.3519 14.5321C13.6511 15.2329 13.291 16.1186 13.2715 17.1893C13.291 18.2405 13.6511 19.1213 14.3519 19.8319C15.0527 20.5424 15.9384 20.9074 17.0091 20.9269C18.0603 20.9074 18.9412 20.5424 19.6517 19.8319C20.3622 19.1213 20.7272 18.2405 20.7467 17.1893C20.7272 16.1186 20.3622 15.2329 19.6517 14.5321C18.9412 13.8313 18.0603 13.4711 17.0091 13.4517ZM17.0091 19.6129C16.3278 19.5934 15.7535 19.3549 15.2863 18.8975C14.8191 18.44 14.5855 17.8706 14.5855 17.1893C14.5855 16.5079 14.8191 15.9337 15.2863 15.4665C15.7535 14.9993 16.3278 14.7657 17.0091 14.7657C17.6904 14.7657 18.2598 14.9993 18.7173 15.4665C19.1748 15.9337 19.4035 16.5079 19.4035 17.1893C19.4035 17.8706 19.1748 18.44 18.7173 18.8975C18.2598 19.3549 17.6904 19.5934 17.0091 19.6129ZM20.0167 13.2765C20.0362 13.5295 20.1286 13.7388 20.2941 13.9043C20.4596 14.0697 20.664 14.1525 20.9073 14.1525C21.1506 14.1525 21.355 14.0697 21.5205 13.9043C21.686 13.7388 21.7687 13.5344 21.7687 13.2911C21.7687 13.0477 21.686 12.8433 21.5205 12.6779C21.355 12.5124 21.1506 12.4297 20.9073 12.4297C20.664 12.4297 20.4596 12.5124 20.2941 12.6779C20.1286 12.8433 20.0362 13.0429 20.0167 13.2765Z" fill="#00524F"/>
</g>
<defs>
<clipPath id="clip0_103_352">
<rect width="14.6" height="24" fill="white" transform="matrix(1 0 0 -1 9.67993 28.4595)"/>
</clipPath>
</defs>
</svg>
