<svg width="182" height="32" viewBox="0 0 182 32" fill="none" xmlns="http://www.w3.org/2000/svg">
<path d="M177.789 7.8739V7.14502H178.694C178.986 7.14502 179.132 7.26148 179.132 7.4944C179.132 7.75744 178.986 7.8739 178.694 7.8739H177.789ZM179.745 7.40605C179.745 6.87998 179.395 6.61894 178.781 6.61894H177.204V9.53647H177.789V8.36986H178.664C178.955 8.36986 179.044 8.45821 179.044 8.69113V9.09874C179.044 9.27343 179.044 9.38989 179.102 9.53647H179.745C179.656 9.38989 179.656 9.27343 179.656 9.09874V8.57266C179.656 8.28151 179.568 8.10481 179.277 8.04658C179.568 7.95823 179.745 7.75543 179.745 7.40404M178.373 10.5846C176.797 10.5846 175.921 9.70915 175.921 8.13292C175.921 6.5567 176.797 5.68124 178.373 5.68124C179.949 5.68124 180.825 6.5567 180.825 8.13292C180.825 9.70915 179.949 10.5846 178.373 10.5846ZM178.373 5.30174C176.592 5.30174 175.483 6.35189 175.483 8.13292C175.483 9.91396 176.592 10.9641 178.373 10.9641C180.154 10.9641 181.263 9.91396 181.263 8.13292C181.263 6.35189 180.154 5.30174 178.373 5.30174ZM167.457 13.2692C169.413 13.2692 170.58 14.0864 170.871 16.1586H163.925C164.216 14.1166 165.501 13.2692 167.457 13.2692ZM171.807 20.3893C170.815 22.1985 169.851 23.0739 167.895 23.0739C165.21 23.0739 163.897 21.7306 163.866 18.7549H175.22V17.9095C175.22 12.6849 172.272 9.76738 167.515 9.76738C162.437 9.76738 159.226 13.0945 159.226 18.3473C159.226 23.6 162.437 26.9272 167.865 26.9272C171.951 26.9272 174.082 25.4393 175.512 22.5499L171.805 20.3913L171.807 20.3893ZM152.952 26.5175V17.4116C152.952 15.0763 154.236 14.2591 156.133 14.2591C157.214 14.2591 157.826 14.4338 158.497 14.7852L159.898 10.5545C159.139 10.1469 158.322 9.88384 157.272 9.88384C154.995 9.88384 153.565 11.1689 152.922 13.5323H152.834V10.177H148.34V26.5196H152.95L152.952 26.5175ZM138.038 22.8691C135.558 22.8691 133.923 21.5258 133.923 18.3453C133.923 15.1647 135.558 13.7933 138.038 13.7933C140.518 13.7933 142.153 15.1647 142.153 18.3453C142.153 21.5258 140.518 22.8691 138.038 22.8691ZM136.462 26.8388C138.883 26.8388 140.723 25.875 141.92 23.7165H142.008V26.5175H146.474V10.175H141.864V12.7733H141.775C140.608 10.7593 138.799 9.85573 136.464 9.85573C132.261 9.85573 129.226 12.7451 129.226 18.3473C129.226 23.9494 132.263 26.8388 136.464 26.8388M122.134 22.2286L119.098 10.177H113.611L110.752 22.1423L108.037 10.177H103.31L107.338 26.5196H113.613L116.356 15.1085L119.216 26.5196H125.433L129.461 10.177H124.851L122.136 22.2286H122.134ZM95.954 10.177H91.4598V26.5196H96.0704V17.4136C96.0704 15.0784 97.3536 14.2611 98.9601 14.2611C100.04 14.2611 100.653 14.4358 101.324 14.7872L102.725 10.5565C102.024 10.1489 101.237 9.88585 100.245 9.88585C98.0565 9.88585 96.6548 11.1709 96.0423 13.5343H95.954V10.179V10.177ZM82.2948 13.2712C84.2507 13.2712 85.4174 14.0884 85.7085 16.1606H78.7625C79.0537 14.1186 80.3388 13.2712 82.2948 13.2712ZM86.6443 20.3913C85.6523 22.2005 84.6884 23.0759 82.7325 23.0759C80.0477 23.0759 78.7344 21.7326 78.7042 18.7569H90.0581V17.9116C90.0581 12.6869 87.1102 9.76939 82.353 9.76939C77.2745 9.76939 74.0635 13.0965 74.0635 18.3493C74.0635 23.602 77.2745 26.9292 82.7024 26.9292C86.7889 26.9292 88.9195 25.4413 90.3493 22.5519L86.6423 20.3934L86.6443 20.3913ZM64.1414 22.9013C61.6614 22.9013 60.0267 21.5298 60.0267 18.3493C60.0267 15.1687 61.6614 13.8254 64.1414 13.8254C66.6214 13.8254 68.256 15.1687 68.256 18.3493C68.256 21.5298 66.6214 22.9013 64.1414 22.9013ZM60.3179 31.19V23.9233H60.4063C61.573 25.9373 63.3823 26.8408 65.7177 26.8408C69.9207 26.8408 72.955 23.9514 72.955 18.3493C72.955 12.7472 69.9187 9.85774 65.7177 9.85774C63.296 9.85774 61.4565 10.8215 60.2597 12.9801H60.1713V10.179H55.7053V31.19H60.3159H60.3179ZM45.4036 22.9013C42.9236 22.9013 41.289 21.5298 41.289 18.3493C41.289 15.1687 42.9236 13.8254 45.4036 13.8254C47.8837 13.8254 49.5183 15.1687 49.5183 18.3493C49.5183 21.5298 47.8837 22.9013 45.4036 22.9013ZM41.5802 31.19V23.9233H41.6685C42.8353 25.9373 44.6446 26.8408 46.98 26.8408C51.183 26.8408 54.2173 23.9514 54.2173 18.3493C54.2173 12.7472 51.181 9.85774 46.98 9.85774C44.5582 9.85774 42.7188 10.8215 41.522 12.9801H41.4336V10.179H36.9675V31.19H41.5782H41.5802ZM25.0895 26.8127C27.686 26.8127 29.6721 25.6461 30.5476 23.4273H30.636V26.5216H35.102V10.179H30.4914V19.2549C30.4914 21.8812 29.2062 22.8731 27.1057 22.8731C25.0052 22.8731 23.8084 21.8812 23.8084 19.283V10.177H19.1977V20.7407C19.1977 24.6803 21.2701 26.8107 25.0936 26.8107M19.1977 5.82782H6.79359C11.4926 5.2154 15.4325 3.90221 18.527 1.97661L17.8563 0.809998C13.6834 3.40826 7.17513 4.98248 0.287292 4.98248V10.177H7.4382V26.5196H12.1653V10.177H19.1997V5.82782H19.1977Z" fill="black"/>
</svg>
