<svg width="167" height="29" viewBox="0 0 167 29" fill="none" xmlns="http://www.w3.org/2000/svg">
<path d="M163.571 6.96998V6.2982H164.405C164.674 6.2982 164.809 6.40554 164.809 6.62021C164.809 6.86264 164.674 6.96998 164.405 6.96998H163.571ZM165.373 6.53878C165.373 6.05392 165.051 5.81333 164.485 5.81333H163.032V8.5023H163.571V7.42708H164.378C164.646 7.42708 164.727 7.50851 164.727 7.72318V8.09886C164.727 8.25987 164.727 8.3672 164.781 8.5023H165.373C165.292 8.3672 165.292 8.25987 165.292 8.09886V7.614C165.292 7.34566 165.21 7.1828 164.942 7.12913C165.21 7.04771 165.373 6.86079 165.373 6.53693M164.109 9.46832C162.656 9.46832 161.85 8.66145 161.85 7.20871C161.85 5.75597 162.656 4.94909 164.109 4.94909C165.562 4.94909 166.369 5.75597 166.369 7.20871C166.369 8.66145 165.562 9.46832 164.109 9.46832ZM164.109 4.59932C162.468 4.59932 161.446 5.5672 161.446 7.20871C161.446 8.85022 162.468 9.8181 164.109 9.8181C165.751 9.8181 166.772 8.85022 166.772 7.20871C166.772 5.5672 165.751 4.59932 164.109 4.59932ZM154.049 11.9426C155.852 11.9426 156.927 12.6959 157.195 14.6057H150.794C151.062 12.7236 152.247 11.9426 154.049 11.9426ZM158.058 18.505C157.143 20.1724 156.255 20.9793 154.453 20.9793C151.978 20.9793 150.768 19.7412 150.74 16.9986H161.204V16.2194C161.204 11.4041 158.487 8.71512 154.103 8.71512C149.423 8.71512 146.463 11.7816 146.463 16.6229C146.463 21.4641 149.423 24.5306 154.425 24.5306C158.191 24.5306 160.154 23.1593 161.472 20.4962L158.056 18.5068L158.058 18.505ZM140.682 24.1531V15.7605C140.682 13.6082 141.865 12.855 143.614 12.855C144.609 12.855 145.174 13.016 145.792 13.3399L147.083 9.44057C146.384 9.06489 145.631 8.82246 144.663 8.82246C142.564 8.82246 141.247 10.0069 140.654 12.1851H140.573V9.09265H136.431V24.1549H140.68L140.682 24.1531ZM126.938 20.7905C124.652 20.7905 123.146 19.5524 123.146 16.621C123.146 13.6896 124.652 12.4257 126.938 12.4257C129.223 12.4257 130.729 13.6896 130.729 16.621C130.729 19.5524 129.223 20.7905 126.938 20.7905ZM125.485 24.4492C127.717 24.4492 129.412 23.5609 130.515 21.5715H130.596V24.1531H134.712V9.0908H130.463V11.4855H130.382C129.306 9.62933 127.639 8.79655 125.487 8.79655C121.613 8.79655 118.817 11.4596 118.817 16.6229C118.817 21.7861 121.615 24.4492 125.487 24.4492M112.281 20.2001L109.482 9.09265H104.426L101.791 20.1206L99.2891 9.09265H94.9328L98.6451 24.1549H104.428L106.956 13.6378L109.592 24.1549H115.321L119.033 9.09265H114.784L112.281 20.2001ZM88.1539 9.09265H84.0122V24.1549H88.2612V15.7623C88.2612 13.6101 89.4438 12.8569 90.9243 12.8569C91.9199 12.8569 92.4844 13.0179 93.1025 13.3417L94.3942 9.44242C93.7484 9.06674 93.0229 8.82431 92.1087 8.82431C90.0915 8.82431 88.7998 10.0087 88.2353 12.1869H88.1539V9.0945V9.09265ZM75.5659 11.9445C77.3684 11.9445 78.4437 12.6977 78.712 14.6076H72.3107C72.579 12.7255 73.7634 11.9445 75.5659 11.9445ZM79.5744 18.5068C78.6602 20.1742 77.7719 20.9811 75.9694 20.9811C73.4951 20.9811 72.2848 19.743 72.257 17.0004H82.7205V16.2213C82.7205 11.406 80.0037 8.71697 75.6196 8.71697C70.9394 8.71697 67.9802 11.7835 67.9802 16.6247C67.9802 21.466 70.9394 24.5325 75.9416 24.5325C79.7076 24.5325 81.6712 23.1611 82.9888 20.4981L79.5725 18.5087L79.5744 18.5068ZM58.8363 20.8201C56.5507 20.8201 55.0443 19.5561 55.0443 16.6247C55.0443 13.6933 56.5507 12.4553 58.8363 12.4553C61.1218 12.4553 62.6282 13.6933 62.6282 16.6247C62.6282 19.5561 61.1218 20.8201 58.8363 20.8201ZM55.3127 28.4595V21.7621H55.3941C56.4693 23.6183 58.1367 24.451 60.289 24.451C64.1624 24.451 66.9587 21.788 66.9587 16.6247C66.9587 11.4615 64.1605 8.7984 60.289 8.7984C58.0571 8.7984 56.362 9.6867 55.259 11.6762H55.1776V9.0945H51.0618V28.4595H55.3108H55.3127ZM41.5681 20.8201C39.2825 20.8201 37.7761 19.5561 37.7761 16.6247C37.7761 13.6933 39.2825 12.4553 41.5681 12.4553C43.8536 12.4553 45.36 13.6933 45.36 16.6247C45.36 19.5561 43.8536 20.8201 41.5681 20.8201ZM38.0445 28.4595V21.7621H38.1259C39.2011 23.6183 40.8685 24.451 43.0208 24.451C46.8942 24.451 49.6905 21.788 49.6905 16.6247C49.6905 11.4615 46.8923 8.7984 43.0208 8.7984C40.7889 8.7984 39.0938 9.6867 37.9908 11.6762H37.9094V9.0945H33.7936V28.4595H38.0426H38.0445ZM22.8471 24.4251C25.24 24.4251 27.0702 23.3499 27.8771 21.305H27.9585V24.1568H32.0743V9.0945H27.8253V17.4594C27.8253 19.88 26.6409 20.7942 24.7051 20.7942C22.7694 20.7942 21.6664 19.88 21.6664 17.4853V9.09265H17.4174V18.8288C17.4174 22.4598 19.3272 24.4233 22.8508 24.4233M17.4174 5.08419H5.98604C10.3165 4.51975 13.9474 3.30944 16.7993 1.53468L16.1811 0.459473C12.3355 2.85418 6.33766 4.30507 -0.00999451 4.30507V9.09265H6.5801V24.1549H10.9365V9.09265H17.4192V5.08419H17.4174Z" fill="#00524F"/>
</svg>
