<svg width="23" height="25" viewBox="0 0 23 25" fill="none" xmlns="http://www.w3.org/2000/svg">
<g clip-path="url(#clip0_103_203)">
<path d="M17.5411 22.498H1.3805C1.20532 22.498 1.06663 22.4397 0.964442 22.3229C0.862252 22.2061 0.811157 22.0747 0.811157 21.9287V12.2499C0.811157 12.1039 0.862252 11.9798 0.964442 11.8776C1.06663 11.7754 1.20532 11.7243 1.3805 11.7243H17.5411C17.6871 11.7243 17.8185 11.7754 17.9352 11.8776C18.052 11.9798 18.1104 12.1039 18.1104 12.2499V21.9287C18.1104 22.0747 18.052 22.2061 17.9352 22.3229C17.8185 22.4397 17.6871 22.498 17.5411 22.498ZM1.94984 21.3594H16.9717V12.8192H1.94984V21.3594ZM20.0374 19.1258C20.1834 19.1258 20.3075 19.0674 20.4097 18.9506C20.5119 18.8338 20.5484 18.7024 20.5192 18.5564L19.8185 8.9214C19.8185 8.74622 19.7601 8.61484 19.6433 8.52724C19.5265 8.43965 19.3951 8.39586 19.2491 8.39586L3.13233 9.57834C2.95714 9.57834 2.82576 9.63673 2.73816 9.75352C2.65057 9.87031 2.60678 10.009 2.60678 10.1696C2.60678 10.3302 2.66517 10.4616 2.78196 10.5637C2.89875 10.6659 3.04473 10.7024 3.21992 10.6732L18.7674 9.53454L19.4243 18.644C19.4827 18.9652 19.6725 19.1258 19.9936 19.1258H20.0374ZM22.2272 15.9287C22.3732 15.8995 22.4973 15.8265 22.5995 15.7097C22.7017 15.5929 22.7382 15.447 22.709 15.2718L21.3075 5.72433C21.2783 5.57834 21.2053 5.46155 21.0885 5.37396C20.9717 5.28637 20.8258 5.24257 20.6506 5.24257L4.66517 7.60754C4.51919 7.63673 4.4024 7.70973 4.31481 7.82651C4.22722 7.9433 4.19072 8.08199 4.20532 8.24257C4.21992 8.40316 4.28561 8.52724 4.4024 8.61484C4.51919 8.70243 4.66517 8.73162 4.84035 8.70243L20.2564 6.42505L21.5703 15.447C21.6579 15.7389 21.8477 15.8995 22.1396 15.9287H22.2272ZM9.4389 20.2207C8.56298 20.2207 7.83306 19.9214 7.24911 19.3229C6.66517 18.7243 6.3732 17.9798 6.3732 17.0893C6.3732 16.1988 6.66517 15.4616 7.24911 14.8776C7.83306 14.2937 8.57028 14.0017 9.46079 14.0017C10.3513 14.0017 11.0885 14.2937 11.6725 14.8776C12.2564 15.4616 12.5484 16.1988 12.5484 17.0893C12.5484 17.9798 12.2564 18.7243 11.6725 19.3229C11.0885 19.9214 10.344 20.2207 9.4389 20.2207ZM9.4389 15.0966C8.88415 15.1258 8.417 15.3229 8.03744 15.6878C7.65787 16.0528 7.46809 16.5199 7.46809 17.0893C7.46809 17.6586 7.65787 18.1331 8.03744 18.5126C8.417 18.8922 8.89145 19.082 9.46079 19.082C10.0301 19.082 10.5046 18.8922 10.8842 18.5126C11.2637 18.1331 11.4535 17.6586 11.4535 17.0893C11.4535 16.5199 11.2637 16.0528 10.8842 15.6878C10.5046 15.3229 10.0228 15.1258 9.4389 15.0966ZM4.66517 19.6513C4.63597 19.4178 4.54838 19.2207 4.4024 19.0601C4.25641 18.8995 4.06663 18.8192 3.83306 18.8192C3.59948 18.8192 3.4024 18.8995 3.24181 19.0601C3.08123 19.2207 3.00094 19.4178 3.00094 19.6513C3.00094 19.8849 3.08123 20.082 3.24181 20.2426C3.4024 20.4032 3.59948 20.4761 3.83306 20.4616C4.06663 20.447 4.25641 20.3667 4.4024 20.2207C4.54838 20.0747 4.63597 19.8849 4.66517 19.6513ZM15.8331 14.5272C15.8331 14.2937 15.7601 14.1039 15.6141 13.9579C15.4681 13.8119 15.2783 13.7389 15.0447 13.7389C14.8112 13.7389 14.6141 13.8119 14.4535 13.9579C14.2929 14.1039 14.2126 14.2937 14.2126 14.5272C14.2126 14.7608 14.2929 14.9579 14.4535 15.1185C14.6141 15.2791 14.8039 15.3594 15.0228 15.3594C15.2418 15.3594 15.4316 15.2791 15.5922 15.1185C15.7528 14.9579 15.8331 14.7608 15.8331 14.5272Z" fill="#231F20"/>
</g>
<defs>
<clipPath id="clip0_103_203">
<rect width="21.9" height="24" fill="white" transform="matrix(1 0 0 -1 0.810059 24.8193)"/>
</clipPath>
</defs>
</svg>
