<svg width="56" height="64" viewBox="0 0 56 64" fill="none" xmlns="http://www.w3.org/2000/svg">
<g opacity="0.4">
<g clip-path="url(#clip0_103_185)">
<path d="M28.09 21.0822C24.9951 21.1698 22.4184 22.2428 20.36 24.3011C18.3016 26.3595 17.2286 28.9362 17.1411 32.0311C17.1702 34.3084 17.7761 36.3303 18.9586 38.0968C20.1411 39.8632 21.725 41.1844 23.7104 42.0603C23.6812 41.6807 23.6812 41.272 23.7104 40.834C23.7396 40.396 23.798 39.9727 23.8856 39.5639L25.287 33.5639C25.287 33.5639 25.2359 33.4106 25.1338 33.1041C25.0316 32.7975 24.9659 32.3814 24.9367 31.8559C24.9659 31.0092 25.1775 30.3303 25.5717 29.8194C25.9659 29.3084 26.4549 29.0384 27.0389 29.0092C27.5352 29.0092 27.9075 29.1698 28.1557 29.4909C28.4038 29.8121 28.5206 30.2136 28.506 30.6953C28.4914 31.1771 28.3746 31.761 28.1557 32.4471C27.9367 33.1333 27.7396 33.8267 27.5644 34.5274C27.4476 35.1406 27.5571 35.6442 27.8929 36.0384C28.2286 36.4325 28.7031 36.6296 29.3162 36.6296C30.3673 36.6004 31.1994 36.0311 31.8126 34.9216C32.4257 33.8121 32.7469 32.4544 32.7761 30.8486C32.7761 29.6223 32.3819 28.6223 31.5936 27.8486C30.8053 27.0749 29.6812 26.6734 28.2213 26.6442C26.5279 26.6734 25.2067 27.199 24.2578 28.2209C23.3089 29.2428 22.8345 30.4544 22.8345 31.8559C22.8345 32.7902 23.0681 33.5201 23.5352 34.0457C23.652 34.1333 23.7177 34.2209 23.7323 34.3084C23.7469 34.396 23.7396 34.4982 23.7104 34.615L23.4914 35.5347C23.3746 35.7975 23.1848 35.8851 22.9221 35.7975C22.163 35.4471 21.6009 34.8997 21.2359 34.1552C20.871 33.4106 20.6885 32.5566 20.6885 31.5931C20.6885 29.9581 21.3381 28.4325 22.6374 27.0165C23.9367 25.6004 25.9002 24.8486 28.5279 24.761C30.6301 24.8194 32.3016 25.4617 33.5425 26.688C34.7834 27.9143 35.4184 29.3595 35.4476 31.0238C35.4184 33.2136 34.871 35.0019 33.8053 36.3887C32.7396 37.7756 31.3162 38.4982 29.5352 38.5566C28.9221 38.5274 28.3746 38.3814 27.8929 38.1187C27.4111 37.8559 27.0681 37.5347 26.8637 37.1552L26.0754 40.1771C25.9586 40.615 25.798 41.0311 25.5936 41.4252C25.3892 41.8194 25.1848 42.1917 24.9805 42.542C25.9732 42.834 27.0097 42.98 28.09 42.98C31.1848 42.8924 33.7615 41.8194 35.8199 39.761C37.8783 37.7026 38.9513 35.126 39.0389 32.0311C38.9513 28.9362 37.8783 26.3595 35.8199 24.3011C33.7615 22.2428 31.1848 21.1698 28.09 21.0822Z" fill="#808080"/>
</g>
</g>
<defs>
<clipPath id="clip0_103_185">
<rect width="21.9" height="24" fill="white" transform="matrix(1 0 0 -1 17.14 42.98)"/>
</clipPath>
</defs>
</svg>
