<svg width="33" height="33" viewBox="0 0 33 33" fill="none" xmlns="http://www.w3.org/2000/svg">
<rect x="0.97998" y="0.459473" width="32" height="32" rx="16" fill="white"/>
<g clip-path="url(#clip0_103_355)">
<path d="M16.9799 9.86045C14.9165 9.91885 13.1985 10.6342 11.8261 12.0066C10.4537 13.379 9.73833 15.097 9.67993 17.1604C9.6994 18.6788 10.1033 20.0269 10.8917 21.2046C11.6801 22.3824 12.7362 23.2632 14.0599 23.8472C14.0405 23.5942 14.0405 23.3216 14.0599 23.0296C14.0794 22.7376 14.1183 22.4554 14.1767 22.1828L15.1111 18.1824C15.1111 18.1824 15.0771 18.0802 15.0089 17.8758C14.9408 17.6714 14.897 17.394 14.8775 17.0436C14.897 16.4791 15.0381 16.0265 15.3009 15.6858C15.5637 15.3452 15.8898 15.1651 16.2791 15.1456C16.6101 15.1456 16.8583 15.2527 17.0237 15.4668C17.1892 15.681 17.2671 15.9486 17.2573 16.2698C17.2476 16.591 17.1697 16.9804 17.0237 17.4378C16.8777 17.8953 16.7463 18.3576 16.6295 18.8248C16.5517 19.2336 16.6247 19.5694 16.8485 19.8322C17.0724 20.095 17.3887 20.2264 17.7975 20.2264C18.4983 20.207 19.0531 19.8274 19.4619 19.0876C19.8707 18.3479 20.0849 17.4427 20.1043 16.372C20.1043 15.5544 19.8415 14.8877 19.3159 14.3718C18.7903 13.856 18.0409 13.5883 17.0675 13.5688C15.9385 13.5883 15.0576 13.9387 14.4249 14.62C13.7923 15.3014 13.4759 16.1092 13.4759 17.0436C13.4759 17.6666 13.6317 18.1532 13.9431 18.5036C14.021 18.562 14.0648 18.6204 14.0745 18.6788C14.0843 18.7372 14.0794 18.8054 14.0599 18.8832L13.9139 19.4964C13.8361 19.6716 13.7095 19.73 13.5343 19.6716C13.0282 19.438 12.6535 19.073 12.4101 18.5766C12.1668 18.0802 12.0451 17.5108 12.0451 16.8684C12.0451 15.7783 12.4783 14.7612 13.3445 13.817C14.2108 12.8729 15.5199 12.3716 17.2719 12.3132C18.6735 12.3522 19.788 12.7804 20.6153 13.598C21.4427 14.4156 21.8661 15.3792 21.8855 16.4888C21.8661 17.9488 21.5011 19.1412 20.7905 20.0658C20.08 20.9905 19.131 21.4723 17.9435 21.5112C17.5347 21.4918 17.1697 21.3944 16.8485 21.2192C16.5273 21.044 16.2986 20.8299 16.1623 20.5768L15.6367 22.5916C15.5589 22.8836 15.4518 23.161 15.3155 23.4238C15.1793 23.6866 15.043 23.9348 14.9067 24.1684C15.5686 24.3631 16.2597 24.4604 16.9799 24.4604C19.0434 24.402 20.7613 23.6866 22.1337 22.3142C23.5061 20.9418 24.2215 19.2239 24.2799 17.1604C24.2215 15.097 23.5061 13.379 22.1337 12.0066C20.7613 10.6342 19.0434 9.91885 16.9799 9.86045Z" fill="#00524F"/>
</g>
<defs>
<clipPath id="clip0_103_355">
<rect width="14.6" height="24" fill="white" transform="matrix(1 0 0 -1 9.67993 28.4595)"/>
</clipPath>
</defs>
</svg>
