<svg width="33" height="33" viewBox="0 0 33 33" fill="none" xmlns="http://www.w3.org/2000/svg">
<rect x="0.97998" y="0.459473" width="32" height="32" rx="16" fill="white"/>
<path d="M23.5256 13.2475C22.6691 13.2475 21.9099 12.9944 21.2481 12.4883C20.8977 12.2158 20.596 11.8848 20.3429 11.4955C20.0899 11.1062 19.9244 10.6877 19.8465 10.2399C19.7881 10.0063 19.7589 9.76302 19.7589 9.50996H17.3354L17.3062 19.8173C17.3062 20.3234 17.1699 20.7614 16.8974 21.1313C16.6249 21.5011 16.2648 21.7639 15.817 21.9196C15.5445 22.017 15.272 22.0559 14.9995 22.0364C14.6296 22.017 14.2841 21.9099 13.9629 21.7152C13.6417 21.5206 13.3886 21.2626 13.2037 20.9415C13.0188 20.6203 12.9166 20.265 12.8971 19.8757C12.8971 19.2333 13.1064 18.7028 13.5249 18.2843C13.9434 17.8658 14.4739 17.6468 15.1163 17.6273C15.3498 17.6273 15.5834 17.6663 15.817 17.7441V15.2622C15.5834 15.2233 15.3401 15.2038 15.0871 15.2038C14.4252 15.2038 13.7926 15.3401 13.1891 15.6126C12.5857 15.8851 12.0503 16.2744 11.5831 16.7806C11.2522 17.1699 10.9846 17.5981 10.7802 18.0653C10.5758 18.5325 10.4638 19.0192 10.4444 19.5253C10.4054 20.2066 10.5028 20.8539 10.7364 21.467C10.97 22.0802 11.3204 22.6204 11.7875 23.0876C11.9238 23.2239 12.0698 23.3504 12.2255 23.4672C13.0626 24.1096 14.0164 24.4405 15.0871 24.46C15.3401 24.46 15.5834 24.4405 15.817 24.4016C16.8098 24.2458 17.6761 23.8078 18.4158 23.0876C18.844 22.6593 19.1749 22.1678 19.4085 21.613C19.6421 21.0583 19.7687 20.4694 19.7881 19.8465L19.7589 14.3862C20.1872 14.7172 20.6446 14.9897 21.1313 15.2038C21.8905 15.5153 22.6983 15.671 23.5548 15.671V13.2475H23.5256Z" fill="#00524F"/>
</svg>
