<svg width="57" height="64" viewBox="0 0 57 64" fill="none" xmlns="http://www.w3.org/2000/svg">
<g opacity="0.4">
<g clip-path="url(#clip0_103_182)">
<path d="M39.5489 24.9364C38.7314 25.3159 37.87 25.5641 36.9649 25.6809C37.9284 25.0677 38.5854 24.1918 38.9357 23.0531C38.0598 23.6079 37.1109 23.9875 36.089 24.1918C35.6803 23.7539 35.1912 23.4035 34.6219 23.1407C34.0525 22.878 33.4467 22.7466 32.8043 22.7466C31.5489 22.7758 30.4978 23.2283 29.6511 24.1042C28.8043 24.9802 28.3664 26.0896 28.3372 27.4327C28.3372 27.7831 28.3664 28.1334 28.4248 28.4838C26.5562 28.367 24.8262 27.878 23.235 27.0166C21.6438 26.1553 20.2934 25.0093 19.1839 23.5787C18.7751 24.2794 18.5708 25.0531 18.5708 25.8999C18.5708 26.7466 18.7533 27.513 19.1182 28.1991C19.4832 28.8853 19.9722 29.4327 20.5854 29.8415C19.8262 29.8123 19.1401 29.6225 18.527 29.2721V29.3159C18.5562 30.4838 18.8992 31.4838 19.5562 32.3159C20.2131 33.148 21.0671 33.6809 22.1182 33.9145C21.7387 34.0312 21.3445 34.0896 20.9357 34.0896C20.6438 34.0896 20.3664 34.0604 20.1036 34.0021C20.3956 34.9656 20.9211 35.7466 21.6803 36.3451C22.4394 36.9437 23.3153 37.2575 24.308 37.2867C23.5197 37.9291 22.6584 38.4254 21.7241 38.7758C20.7897 39.1261 19.7824 39.3013 18.7022 39.3013C18.3518 39.3013 18.0014 39.2721 17.6511 39.2137C18.6438 39.8853 19.7241 40.4035 20.8919 40.7685C22.0598 41.1334 23.2715 41.3159 24.527 41.3159C28.673 41.1699 31.8408 39.7247 34.0306 36.9802C36.2204 34.2356 37.3153 31.2283 37.3153 27.9583V27.3451C38.1912 26.6736 38.9357 25.8707 39.5489 24.9364Z" fill="#808080"/>
</g>
</g>
<defs>
<clipPath id="clip0_103_182">
<rect width="21.9" height="24" fill="white" transform="matrix(1 0 0 -1 17.65 42.98)"/>
</clipPath>
</defs>
</svg>
