<svg width="33" height="33" viewBox="0 0 33 33" fill="none" xmlns="http://www.w3.org/2000/svg">
<rect x="0.97998" y="0.459473" width="32" height="32" rx="16" fill="white"/>
<g clip-path="url(#clip0_103_358)">
<path d="M24.0171 13.5395C23.9198 13.1307 23.73 12.79 23.4477 12.5175C23.1655 12.245 22.8297 12.0892 22.4403 12.0503C21.5449 11.9335 20.6397 11.8654 19.7247 11.8459C18.8098 11.8264 17.8949 11.8167 16.9799 11.8167C16.065 11.8167 15.1501 11.8264 14.2351 11.8459C13.3202 11.8654 12.415 11.9335 11.5195 12.0503C11.1302 12.0892 10.7944 12.245 10.5121 12.5175C10.2299 12.79 10.0401 13.1307 9.94273 13.5395C9.82593 14.1235 9.75293 14.7221 9.72373 15.3353C9.69453 15.9485 9.67993 16.5568 9.67993 17.1603C9.67993 17.7638 9.68966 18.3721 9.70913 18.9853C9.7286 19.5985 9.80646 20.1971 9.94273 20.7811C10.0401 21.1899 10.2299 21.5306 10.5121 21.8031C10.7944 22.0756 11.1302 22.2314 11.5195 22.2703C12.415 22.3871 13.3202 22.4552 14.2351 22.4747C15.1501 22.4942 16.065 22.5039 16.9799 22.5039C17.8949 22.5039 18.8098 22.4942 19.7247 22.4747C20.6397 22.4552 21.5449 22.3871 22.4403 22.2703C22.8297 22.2314 23.1655 22.0756 23.4477 21.8031C23.73 21.5306 23.9198 21.1899 24.0171 20.7811C24.1534 20.1971 24.2313 19.5985 24.2507 18.9853C24.2702 18.3721 24.2799 17.7638 24.2799 17.1603C24.2799 16.5568 24.2702 15.9485 24.2507 15.3353C24.2313 14.7221 24.1534 14.1235 24.0171 13.5395ZM15.5491 19.2627V15.0579L19.4911 17.1603L15.5491 19.2627Z" fill="#00524F"/>
</g>
<defs>
<clipPath id="clip0_103_358">
<rect width="14.6" height="24" fill="white" transform="matrix(1 0 0 -1 9.67993 28.4595)"/>
</clipPath>
</defs>
</svg>
