<svg width="22" height="25" viewBox="0 0 22 25" fill="none" xmlns="http://www.w3.org/2000/svg">
<g clip-path="url(#clip0_103_199)">
<path d="M19.4464 18.7319C19.4464 19.4326 19.2128 20.0092 18.7456 20.4618C18.2785 20.9143 17.7018 21.1406 17.0157 21.1406C16.3296 21.1406 15.7602 20.9143 15.3077 20.4618C14.8551 20.0092 14.6142 19.4326 14.585 18.7319H7.31497C7.28577 19.4326 7.04489 20.0092 6.59234 20.4618C6.13978 20.9143 5.56314 21.1406 4.86241 21.1406C4.16168 21.1406 3.58504 20.9143 3.13249 20.4618C2.67993 20.0092 2.45365 19.4326 2.45365 18.7319H0.833215C0.599639 18.7319 0.402558 18.6516 0.241975 18.491C0.0813906 18.3304 0.00109863 18.1479 0.00109863 17.9435V7.3888C0.00109863 7.15522 0.0813906 6.96544 0.241975 6.81946C0.402558 6.67347 0.599639 6.58588 0.833215 6.55668H13.7967C14.0303 6.58588 14.2201 6.67347 14.3661 6.81946C14.512 6.96544 14.585 7.15522 14.585 7.3888V9.00924H17.4318C18.6872 9.03844 19.7383 9.46909 20.585 10.3012C21.4318 11.1333 21.8697 12.1917 21.8989 13.4764V17.9435C21.8989 18.1771 21.8186 18.3669 21.658 18.5129C21.4974 18.6589 21.315 18.7319 21.1106 18.7319H19.4464ZM18.8332 17.1114H20.2785V13.4764C20.2493 12.6589 19.9719 11.9873 19.4464 11.4618C18.9208 10.9362 18.2493 10.6589 17.4318 10.6297H14.585V17.1114H15.242C15.7091 16.5859 16.3077 16.3231 17.0376 16.3231C17.7675 16.3231 18.3661 16.5859 18.8332 17.1114ZM3.06679 17.1114C3.53395 16.5859 4.13249 16.3231 4.86241 16.3231C5.59234 16.3231 6.20548 16.5859 6.70183 17.1114H12.9646V8.17712H1.62154V17.1114H3.06679ZM4.86241 19.564C5.09599 19.5348 5.28577 19.4472 5.43176 19.3012C5.57774 19.1552 5.65073 18.9654 5.65073 18.7319C5.65073 18.4983 5.57774 18.3085 5.43176 18.1625C5.28577 18.0165 5.09599 17.9435 4.86241 17.9435C4.62884 17.9435 4.43905 18.0165 4.29307 18.1625C4.14708 18.3085 4.07409 18.4983 4.07409 18.7319C4.07409 18.9654 4.14708 19.1552 4.29307 19.3012C4.43905 19.4472 4.62884 19.5348 4.86241 19.564ZM17.0376 19.564C17.2712 19.5348 17.461 19.4472 17.6069 19.3012C17.7529 19.1552 17.8259 18.9654 17.8259 18.7319C17.8259 18.4983 17.7529 18.3085 17.6069 18.1625C17.461 18.0165 17.2712 17.9435 17.0376 17.9435C16.804 17.9435 16.6142 18.0165 16.4683 18.1625C16.3223 18.3085 16.2493 18.4983 16.2493 18.7319C16.2493 18.9654 16.3223 19.1552 16.4683 19.3012C16.6142 19.4472 16.804 19.5348 17.0376 19.564ZM8.23468 12.2501L6.9646 10.98L8.10329 9.79756L11.3442 13.0822L8.10329 16.3231L6.9646 15.1844L8.23468 13.8706H4.07409V12.2501H8.23468Z" fill="#231F20"/>
</g>
<defs>
<clipPath id="clip0_103_199">
<rect width="21.9" height="24" fill="white" transform="matrix(1 0 0 -1 0 24.8193)"/>
</clipPath>
</defs>
</svg>
