<svg width="23" height="25" viewBox="0 0 23 25" fill="none" xmlns="http://www.w3.org/2000/svg">
<g clip-path="url(#clip0_103_207)">
<path d="M21.3751 6.81934C21.3751 6.58576 21.2948 6.38868 21.1342 6.2281C20.9736 6.06751 20.7765 5.97262 20.5429 5.94342C19.1707 5.79744 17.8422 5.49087 16.5575 5.02372C15.0685 4.46897 13.6232 3.81204 12.2218 3.05291C11.9006 2.87773 11.594 2.87773 11.3021 3.05291C9.90061 3.81204 8.45535 4.45437 6.9663 4.97992C5.62324 5.44707 4.28017 5.75364 2.93711 5.89963C2.73273 5.92883 2.55024 6.02372 2.38966 6.1843C2.22908 6.34488 2.13419 6.54196 2.10499 6.77554C1.9882 12.177 3.24367 16.615 5.87141 20.0894C7.30207 21.9872 9.09769 23.5201 11.2583 24.6879C11.4043 24.7755 11.5575 24.8193 11.7181 24.8193C11.8787 24.8193 12.0612 24.7755 12.2656 24.6879C14.3678 23.5201 16.1488 22.0018 17.6086 20.1332C20.2364 16.6588 21.4918 12.2208 21.3751 6.81934ZM19.4918 7.65145C19.4627 12.323 18.324 16.1332 16.0758 19.0821C14.8787 20.6296 13.4335 21.9142 11.74 22.9361C9.9882 21.8558 8.54294 20.5712 7.40426 19.0821C5.18528 16.104 4.06119 12.2938 4.032 7.65145C5.19988 7.44707 6.41156 7.12591 7.66703 6.68795C9.06849 6.1916 10.4262 5.59306 11.74 4.89233C13.1999 5.65145 14.5575 6.24999 15.813 6.68795C17.1269 7.12591 18.3532 7.44707 19.4918 7.65145Z" fill="#231F20"/>
</g>
<defs>
<clipPath id="clip0_103_207">
<rect width="21.9" height="24" fill="white" transform="matrix(1 0 0 -1 0.790039 24.8193)"/>
</clipPath>
</defs>
</svg>
